<svg xmlns="http://www.w3.org/2000/svg" viewBox="0 0 20.12 16.77"><defs><style>.cls-1{fill:#228c8c;}</style></defs><title>Fichier 8</title><g id="Calque_2" data-name="Calque 2"><g id="Calque_1-2" data-name="Calque 1"><path class="cls-1" d="M7,0a.37.37,0,0,0-.3.18L5.49,2.68H1.94A2,2,0,0,0,0,4.63V14.82a2,2,0,0,0,1.94,1.95H18.18a2,2,0,0,0,1.94-1.95V4.63a2,2,0,0,0-1.94-1.95H14.63L13.38.18a.35.35,0,0,0-.3-.18Zm.21.67h5.62l1.24,2.49a.34.34,0,0,0,.31.19h3.76a1.26,1.26,0,0,1,1.27,1.28V14.82a1.26,1.26,0,0,1-1.27,1.28H1.94A1.26,1.26,0,0,1,.67,14.82V4.63A1.26,1.26,0,0,1,1.94,3.35H5.7A.32.32,0,0,0,6,3.16Zm2.91,5a4,4,0,1,0,4,4A4,4,0,0,0,10.16,5.7Zm0,.67A3.36,3.36,0,1,1,6.81,9.72,3.35,3.35,0,0,1,10.16,6.37Z"/></g></g></svg>