<svg xmlns="http://www.w3.org/2000/svg" viewBox="0 0 33.86 25.34"><defs><style>.cls-1{fill:#252242;}</style></defs><title>Fichier 4</title><g id="Calque_2" data-name="Calque 2"><g id="Calque_1-2" data-name="Calque 1"><path class="cls-1" d="M.33,6.58A7.84,7.84,0,0,0,4.72,8.41h0a6.5,6.5,0,0,0,2-.5L6,13.2,3.36,23.48a1.37,1.37,0,0,0,1,1.67,1.38,1.38,0,0,0,1.67-1l2.47-9.68.66.1v9.24a1.38,1.38,0,0,0,1.38,1.38c.76,0,1.39-1.38,1.39-1.38V14.19s0-.06,0-.08l.93-6.26a1.19,1.19,0,0,0,.2-.19h0a3.78,3.78,0,0,1,.38-.43L13,6.89c-.3-.21-.64-.44-1-.63a1.71,1.71,0,0,0-.23-.13l.26.1a5.85,5.85,0,0,1,.87.41L13,6.7a6.19,6.19,0,0,1,.57.39l.34.26h0V23.88a1.41,1.41,0,0,0,1.13,1.39,1.39,1.39,0,0,0,1.64-1.36v-8.8h.42v8.83a1.4,1.4,0,0,0,1.13,1.38A1.38,1.38,0,0,0,19.9,24V7.36h0c.08-.07.2-.17.34-.27a5.27,5.27,0,0,1,.58-.39l.11-.06a7.05,7.05,0,0,1,.87-.42l.26-.09-.23.12c-.34.2-.68.43-1,.64l-.45.35c.23.23.37.4.39.42h0a2.36,2.36,0,0,0,.2.18l.92,6.27a.06.06,0,0,1,0,.08v9.62a1.44,1.44,0,0,0,1.41,1.38,1.35,1.35,0,0,0,1.36-1.38V14.57l.68-.1,2.47,9.68a1.38,1.38,0,0,0,1.67,1,1.37,1.37,0,0,0,1-1.67L27.88,13.2,27.1,7.91a9.85,9.85,0,0,0,2,.39h0a11.55,11.55,0,0,0,4.39-1.72.85.85,0,1,0-1.05-1.34,5.47,5.47,0,0,1-3.35,1.39H29A1,1,0,0,1,28.8,7a1.07,1.07,0,0,1-.87.45,1,1,0,0,1-.61-.2L27,7l-1.11-.8a7.24,7.24,0,0,1,1.08.54l.5.33a.85.85,0,0,0,1.19-.21.9.9,0,0,0,.13-.28.86.86,0,0,0-.33-.9A8.75,8.75,0,0,0,25.74,4.4a2.55,2.55,0,0,1-.31.59l0,.06a2.56,2.56,0,0,1-.45.48l-.05,0a2.66,2.66,0,0,1-.45.29,2.78,2.78,0,0,1-1.25.3,2.54,2.54,0,0,1-.61-.07L22.37,6,22.3,6a2.67,2.67,0,0,1-1.41-1.13l-.06-.09h0L20.35,5a6.39,6.39,0,0,0-1.44-.66l-.07.07a2.71,2.71,0,0,1-1.91.78,2.54,2.54,0,0,1-.61-.07A2.61,2.61,0,0,1,15,4.43L15,4.36A6.39,6.39,0,0,0,13.51,5L13,4.79h0L13,4.89A2.67,2.67,0,0,1,11.56,6l-.07,0-.21.06a2.54,2.54,0,0,1-.61.07,2.78,2.78,0,0,1-1.25-.3A2.66,2.66,0,0,1,9,5.58l-.05,0a2.56,2.56,0,0,1-.45-.48l0-.06a2.19,2.19,0,0,1-.3-.59,8.69,8.69,0,0,0-2.7,1.31.86.86,0,0,0-.33.9.9.9,0,0,0,.13.28.85.85,0,0,0,1.19.21l.5-.33A7.24,7.24,0,0,1,8,6.23L6.89,7l-.35.24a1,1,0,0,1-.61.2A1.07,1.07,0,0,1,5.06,7a1,1,0,0,1-.17-.39H4.73A5.47,5.47,0,0,1,1.38,5.24a.86.86,0,0,0-1.2.14A.86.86,0,0,0,.33,6.58Z"/><path class="cls-1" d="M8.78,5.06a2.91,2.91,0,0,0,.31.3,2.77,2.77,0,0,0,.81.44A2.52,2.52,0,0,0,11,5.89l.2,0h0A2.28,2.28,0,0,0,12,5.53a2.44,2.44,0,0,0,.83-.86v0A2.49,2.49,0,0,0,13,2.56,2.5,2.5,0,0,0,8.23,4l0,.12c0,.07.05.14.07.2A2.51,2.51,0,0,0,8.78,5.06Z"/><path class="cls-1" d="M21,4.67a2.44,2.44,0,0,0,.83.86,2.28,2.28,0,0,0,.77.32h0l.2,0A2.52,2.52,0,0,0,24,5.8a2.77,2.77,0,0,0,.81-.44,2.91,2.91,0,0,0,.31-.3,2.51,2.51,0,0,0,.45-.76c0-.06,0-.13.07-.2l0-.12a2.5,2.5,0,1,0-4.87-1.13A2.48,2.48,0,0,0,21,4.65Z"/><path class="cls-1" d="M16.36,4.93a2.49,2.49,0,0,0,2.24-.57l.08-.07a2.55,2.55,0,0,0,.69-1.22,2.5,2.5,0,1,0-4.19,1.22l.08.07A2.52,2.52,0,0,0,16.36,4.93Z"/></g></g></svg>