<svg xmlns="http://www.w3.org/2000/svg" viewBox="0 0 24 24.24"><defs><style>.cls-1{fill:#228c8c;}</style></defs><title>Fichier 7</title><g id="Calque_2" data-name="Calque 2"><g id="Calque_1-2" data-name="Calque 1"><path class="cls-1" d="M5.78,6.76a1.05,1.05,0,0,1-1-1.1V1.1a1,1,0,1,1,2.08,0V5.66A1,1,0,0,1,5.78,6.76Z"/><path class="cls-1" d="M18.22,6.76a1,1,0,0,1-1-1.1V1.1A1,1,0,0,1,18.27,0a1.09,1.09,0,0,1,1,1.12V5.66A1.06,1.06,0,0,1,18.22,6.76Z"/><path class="cls-1" d="M23.18,1.79H20.54a.85.85,0,0,0-.82.87V5.6a1.55,1.55,0,0,1-1.5,1.6,1.52,1.52,0,0,1-1.51-1.6V2.66a.85.85,0,0,0-.81-.87H8.1a.85.85,0,0,0-.81.87V5.6A1.56,1.56,0,0,1,5.78,7.2a1.52,1.52,0,0,1-1.5-1.6V2.66a.85.85,0,0,0-.82-.87H.82A.85.85,0,0,0,0,2.67v20.7a.84.84,0,0,0,.82.87H23.18a.84.84,0,0,0,.82-.87V2.67A.85.85,0,0,0,23.18,1.79ZM22,21.29a.86.86,0,0,1-.83.87H2.73a.85.85,0,0,1-.82-.87V9.78a.84.84,0,0,1,.82-.87H21.15a.85.85,0,0,1,.83.87Z"/><polygon class="cls-1" points="11.99 10.73 12.61 12.05 13.99 12.27 12.99 13.3 13.22 14.76 11.99 14.07 10.75 14.76 10.99 13.3 9.99 12.27 11.37 12.05 11.99 10.73"/><polygon class="cls-1" points="6.49 10.73 7.11 12.05 8.49 12.27 7.49 13.3 7.73 14.76 6.49 14.07 5.25 14.76 5.49 13.3 4.49 12.27 5.87 12.05 6.49 10.73"/><polygon class="cls-1" points="17.52 10.73 18.14 12.05 19.51 12.27 18.52 13.3 18.75 14.76 17.52 14.07 16.28 14.76 16.52 13.3 15.52 12.27 16.9 12.05 17.52 10.73"/><polygon class="cls-1" points="11.99 16.29 12.61 17.61 13.99 17.82 12.99 18.86 13.22 20.32 11.99 19.63 10.75 20.32 10.99 18.86 9.99 17.82 11.37 17.61 11.99 16.29"/><polygon class="cls-1" points="6.49 16.29 7.11 17.61 8.49 17.82 7.49 18.86 7.73 20.32 6.49 19.63 5.25 20.32 5.49 18.86 4.49 17.82 5.87 17.61 6.49 16.29"/><polygon class="cls-1" points="17.52 16.29 18.14 17.61 19.51 17.82 18.52 18.86 18.75 20.32 17.52 19.63 16.28 20.32 16.52 18.86 15.52 17.82 16.9 17.61 17.52 16.29"/></g></g></svg>