<svg xmlns="http://www.w3.org/2000/svg" viewBox="0 0 24.62 27.29"><defs><style>.cls-1{fill:#252242;}</style></defs><title>Fichier 1</title><g id="Calque_2" data-name="Calque 2"><g id="Calque_1-2" data-name="Calque 1"><path class="cls-1" d="M23.23,20.5H16.64l1.12-7s0-.07,0-.1,0-.07,0-.11a.76.76,0,0,0,0-.16,1.28,1.28,0,0,0,0-.27,1.34,1.34,0,0,0-.12-.24c0-.05,0-.1-.06-.14L13.74,7.29l3.2.74,2.43,3.65a1.37,1.37,0,0,0,1.14.61,1.33,1.33,0,0,0,.76-.23,1.36,1.36,0,0,0,.38-1.89l-2.73-4.1a1.39,1.39,0,0,0-.84-.58l-7.32-1.7h0a1.07,1.07,0,0,0-.31,0,1.47,1.47,0,0,0-.21,0,2.77,2.77,0,0,0-.26.1A.94.94,0,0,0,9.7,4h0L7.19,5.7l0,0-.05,0L.5,11.23a1.37,1.37,0,0,0-.19,1.93,1.38,1.38,0,0,0,1.93.18L7.72,8.8,11,13.23l-6.2,3.65a1.42,1.42,0,0,0-.6.72L1.44,25.48a1.37,1.37,0,0,0,.85,1.74,1.31,1.31,0,0,0,.44.07A1.36,1.36,0,0,0,4,26.38L6.58,19,14,14.59h.78l-1.13,7.09A1.37,1.37,0,0,0,15,23.27h8.19a1.39,1.39,0,1,0,0-2.77Z"/><path class="cls-1" d="M6.14,4.1a2.05,2.05,0,1,0-2-2A2.05,2.05,0,0,0,6.14,4.1Z"/></g></g></svg>